# xmcd
#
# Track frame offsets:
#	182
#	12745
#	25822
#	38977
#	52390
#	64667
#	77180
#	88985
#	105692
#	121937
#
# Disc length: 1793 seconds
#
# Revision: 0
# Processed by: cddbd v1.4PL0 Copyright (c) Steve Scherf et al.
# Submitted via: EasyCDDAExtractor 4.6.9.1
#
DISCID=8b06ff0a
DTITLE=Reba McEntire - Gold
DYEAR=1900
DGENRE=Country
TTITLE0=(You Lift Me) Up To Heaven
TTITLE1=You're the First Time I've Thought About Leaving
TTITLE2=Gonna Love Ya (Till the Cows Come Home)
TTITLE3=Glad I Waited Just For You
TTITLE4=One To One
TTITLE5=I'm Not That Lonely Yet
TTITLE6=There Ain't No Future In This
TTITLE7=Don't Say Goodnight, Say Good Morning
TTITLE8=Why Can't He Be You
TTITLE9=Whoever's Watchin'
EXTD=
EXTT0=
EXTT1=
EXTT2=
EXTT3=
EXTT4=
EXTT5=
EXTT6=
EXTT7=
EXTT8=
EXTT9=
PLAYORDER=
